<svg xmlns="http://www.w3.org/2000/svg" width="20" height="20" viewBox="0 0 20 20" fill="none">
  <path d="M8.71536 15C8.45367 14.9985 8.19525 14.9417 7.95703 14.8333C7.69939 14.7198 7.47988 14.5344 7.32472 14.2995C7.16956 14.0645 7.08531 13.7899 7.08203 13.5083V6.49166C7.08531 6.21012 7.16956 5.93547 7.32472 5.70051C7.47988 5.46556 7.69939 5.28023 7.95703 5.16666C8.25348 5.02664 8.58331 4.9727 8.90892 5.01101C9.23453 5.04932 9.54284 5.17833 9.7987 5.38333L14.0487 8.89166C14.2154 9.02434 14.35 9.1929 14.4425 9.38479C14.535 9.57669 14.583 9.78697 14.583 10C14.583 10.213 14.535 10.4233 14.4425 10.6152C14.35 10.8071 14.2154 10.9756 14.0487 11.1083L9.7987 14.6167C9.49235 14.8651 9.10979 15.0005 8.71536 15Z" fill="#FCDF0A"/>
</svg>