<svg xmlns="http://www.w3.org/2000/svg" width="48" height="48" viewBox="0 0 48 48" fill="none">
  <path d="M7.08161 18.24C6.69912 18.3566 6.29515 18.3848 5.90018 18.3224C5.50521 18.26 5.12957 18.1088 4.80161 17.88L1.56161 23.28C1.20056 23.9215 1.09887 24.6769 1.2774 25.3911C1.45594 26.1052 1.90116 26.7239 2.52161 27.12L31.4416 44.52C31.7553 44.7143 32.1048 44.8438 32.4695 44.9007C32.8341 44.9576 33.2064 44.9408 33.5644 44.8513C33.9225 44.7618 34.2589 44.6014 34.5538 44.3796C34.8488 44.1578 35.0963 43.8791 35.2816 43.56L38.5216 38.16H38.4016C38.0784 37.9631 37.7972 37.7045 37.5741 37.3989C37.3509 37.0933 37.1901 36.7467 37.101 36.3789C37.0118 36.0112 36.996 35.6295 37.0545 35.2556C37.1129 34.8817 37.2445 34.523 37.4416 34.2C37.8424 33.5189 38.4956 33.0234 39.2596 32.8212C40.0235 32.619 40.8364 32.7264 41.5216 33.12C41.5216 33.1518 41.5343 33.1824 41.5568 33.2049C41.5793 33.2274 41.6098 33.24 41.6416 33.24L45.3616 27" stroke="#FCDD09" stroke-width="1.3" stroke-linejoin="round"/>
  <path d="M32.7583 41.88L27.2383 38.64" stroke="#FCDD09" stroke-linecap="round" stroke-linejoin="round"/>
  <path d="M28.8008 36L34.2008 39.36" stroke="#FCDD09" stroke-linecap="round" stroke-linejoin="round"/>
  <path d="M31.0834 27.2399L23.5234 39.4799" stroke="#FCDD09" stroke-linecap="round" stroke-linejoin="round" stroke-dasharray="1 3"/>
  <path d="M43.6775 15.1199C43.7085 14.3453 44.0382 13.6127 44.5975 13.0758C45.1568 12.5388 45.9022 12.2393 46.6775 12.2399H46.7975V5.87992C46.7979 5.50715 46.7227 5.13817 46.5765 4.79524C46.4304 4.45231 46.2163 4.14254 45.9472 3.88462C45.678 3.6267 45.3594 3.42597 45.0106 3.29454C44.6618 3.16311 44.2899 3.10371 43.9175 3.11992H10.3175C9.94508 3.10371 9.57324 3.16311 9.22441 3.29454C8.87557 3.42597 8.55698 3.6267 8.28784 3.88462C8.0187 4.14254 7.80461 4.45231 7.65846 4.79524C7.51231 5.13817 7.43715 5.50715 7.4375 5.87992V12.2399C7.87321 12.1514 8.32314 12.1609 8.75473 12.2677C9.18633 12.3744 9.58881 12.5757 9.93305 12.8571C10.2773 13.1385 10.5547 13.4928 10.7452 13.8946C10.9357 14.2963 11.0345 14.7353 11.0345 15.1799C11.0345 15.6245 10.9357 16.0636 10.7452 16.4653C10.5547 16.867 10.2773 17.2214 9.93305 17.5027C9.58881 17.7841 9.18633 17.9854 8.75473 18.0922C8.32314 18.1989 7.87321 18.2084 7.4375 18.1199V24.3599C7.4375 25.1237 7.74093 25.8563 8.28103 26.3964C8.82114 26.9365 9.55368 27.2399 10.3175 27.2399H43.9175C44.6813 27.2399 45.4139 26.9365 45.954 26.3964C46.4941 25.8563 46.7975 25.1237 46.7975 24.3599V18.1199H46.6775C45.8819 18.1199 45.1188 17.8039 44.5562 17.2412C43.9936 16.6786 43.6775 15.9156 43.6775 15.1199Z" stroke="#FCDD09" stroke-width="1.3" stroke-linejoin="round"/>
  <path d="M43.6803 6.23993H37.3203V9.22793H43.6803V6.23993Z" fill="#FCDD09"/>
  <path d="M43.6803 24.2399H37.3203" stroke="#FCDD09" stroke-linecap="round" stroke-linejoin="round"/>
  <path d="M37.3203 21.2399H43.6803" stroke="#FCDD09" stroke-linecap="round" stroke-linejoin="round"/>
  <path d="M34.5625 3.12V3.72" stroke="#FCDD09" stroke-linecap="round" stroke-linejoin="round"/>
  <path d="M34.5625 7.31995V24.5999" stroke="#FCDD09" stroke-linecap="round" stroke-linejoin="round" stroke-dasharray="0.99 2.98"/>
  <path d="M34.5625 26.4V27" stroke="#FCDD09" stroke-linecap="round" stroke-linejoin="round"/>
  <path d="M14.2791 18.36C14.5341 17.6974 14.7348 17.0151 14.8791 16.32C14.9761 16.1357 15.0177 15.9274 14.9991 15.72C14.9772 15.3495 14.8961 14.9849 14.7591 14.64L14.0391 12.6H15.5991C15.93 13.2579 16.2108 13.9398 16.4391 14.64H16.6791L19.0791 14.4L22.6791 14.16H22.7991L20.5191 7.91998H22.5591C23.0496 8.76641 23.6117 9.56934 24.2391 10.32L25.9191 12.84L26.6391 13.92H26.9991L31.1991 14.4C31.404 14.3906 31.6083 14.429 31.7958 14.5124C31.9833 14.5957 32.1487 14.7216 32.2791 14.88C32.3541 14.9215 32.4166 14.9823 32.4602 15.0562C32.5037 15.1301 32.5267 15.2142 32.5267 15.3C32.5267 15.3857 32.5037 15.4699 32.4602 15.5438C32.4166 15.6176 32.3541 15.6785 32.2791 15.72C31.9975 15.9109 31.6574 15.9959 31.3191 15.96L27.1191 16.32H26.8791L22.4391 22.92H20.6391L22.9191 15.96H22.7991L16.7991 15.12C16.5591 15.12 16.5591 15.12 16.4391 15.36L15.7191 17.52C15.7191 17.64 15.7191 17.64 15.5991 17.64H14.2791V18.36Z" fill="#FCDD09"/>
</svg>