<svg xmlns="http://www.w3.org/2000/svg" width="48" height="48" viewBox="0 0 48 48" fill="none">
  <path d="M40.4373 31.8C43.3173 25.8 45.3573 17.4 45.3573 5.64001C31.3173 9.84001 23.8773 1.20001 23.8773 1.20001C23.8773 1.20001 16.4373 9.84001 2.27734 5.64001C2.27734 43.2 23.8773 46.8 23.8773 46.8C26.7839 46.0988 29.4924 44.7445 31.7973 42.84" stroke="#FCDD09" stroke-width="1.3" stroke-linecap="round" stroke-linejoin="round"/>
  <path d="M17.8798 31.08L16.7998 28.32C16.7498 28.0856 16.6231 27.8745 16.4398 27.72C16.1431 27.3019 15.778 26.9367 15.3598 26.64L12.8398 25.08H12.9598L14.3998 24H14.6398L17.2798 25.44H17.6398L20.0398 23.28L23.5198 20.04C23.5198 19.92 23.6398 19.92 23.6398 19.8L15.8398 14.88C15.8717 14.88 15.9022 14.8674 15.9247 14.8449C15.9472 14.8224 15.9598 14.7918 15.9598 14.76L17.9998 13.56H18.2398L22.0798 14.76L26.0398 16.08L27.7198 16.56H28.0798L32.9998 13.2C33.4725 12.9142 34.0083 12.7494 34.5598 12.72C34.6942 12.7011 34.8311 12.7204 34.9549 12.7759C35.0787 12.8314 35.1843 12.9207 35.2595 13.0336C35.3348 13.1464 35.3766 13.2783 35.3802 13.4139C35.3838 13.5495 35.349 13.6833 35.2798 13.8C35.069 14.2089 34.7842 14.575 34.4398 14.88L30.2398 18.72C30.1964 18.7687 30.1634 18.8258 30.1428 18.8877C30.1221 18.9495 30.1143 19.015 30.1198 19.08C30.3598 22.56 30.4798 26.16 30.7198 29.64C30.7254 29.705 30.7176 29.7705 30.6969 29.8324C30.6763 29.8943 30.6433 29.9513 30.5998 30L28.9198 31.44L25.6798 22.08C25.6798 22.1118 25.6672 22.1424 25.6447 22.1649C25.6222 22.1874 25.5917 22.2 25.5598 22.2L18.5998 26.28C18.2398 26.52 18.2398 26.52 18.3598 26.88C18.4798 27.24 19.0798 28.8 19.3198 29.64C19.5598 30.48 19.4398 30 19.1998 30L17.9998 30.96L17.8798 31.08Z" fill="#FCDD09"/>
  <path fill-rule="evenodd" clip-rule="evenodd" d="M46.5625 38.28C46.5625 43.2506 42.5331 47.28 37.5625 47.28C32.5919 47.28 28.5625 43.2506 28.5625 38.28C28.5625 33.3095 32.5919 29.28 37.5625 29.28C42.5331 29.28 46.5625 33.3095 46.5625 38.28ZM42.2507 36.1524C42.5337 35.8817 42.5436 35.4328 42.273 35.1498C42.0023 34.8668 41.5534 34.8568 41.2704 35.1275L36.2098 39.9681L33.6966 37.857C33.3968 37.6051 32.9495 37.644 32.6976 37.9439C32.4457 38.2437 32.4846 38.691 32.7845 38.9429L35.7845 41.4629C36.0615 41.6956 36.4692 41.6824 36.7307 41.4324L42.2507 36.1524Z" fill="#FCDD09"/>
</svg>