<svg xmlns="http://www.w3.org/2000/svg" width="48" height="48" viewBox="0 0 48 48" fill="none">
  <path fill-rule="evenodd" clip-rule="evenodd" d="M6.60156 1.19995H41.4016V11.064H6.60156V1.19995ZM22.8015 6.47999C22.7848 7.05311 22.5732 7.60339 22.2015 8.03999C21.9986 8.24448 21.7547 8.40368 21.4858 8.50709C21.2169 8.61051 20.9292 8.6558 20.6415 8.63999C20.101 8.63867 19.5831 8.42287 19.2015 8.03999C18.8299 7.60339 18.6182 7.05311 18.6015 6.47999V5.63999C18.6182 5.06688 18.8299 4.51659 19.2015 4.07999C19.5831 3.69711 20.101 3.48132 20.6415 3.47999C20.9292 3.46418 21.2169 3.50948 21.4858 3.61289C21.7547 3.71631 21.9986 3.8755 22.2015 4.07999C22.5732 4.51659 22.7848 5.06688 22.8015 5.63999V6.47999ZM21.7215 5.63999C21.7215 5.15999 21.7215 4.91999 21.4815 4.67999C21.3764 4.56223 21.2466 4.46896 21.1015 4.40676C20.9564 4.34456 20.7994 4.31494 20.6415 4.31999C20.501 4.31492 20.3614 4.34523 20.2356 4.40813C20.1098 4.47103 20.0018 4.56451 19.9215 4.67999C19.7943 4.80348 19.6961 4.95362 19.6338 5.11961C19.5716 5.2856 19.5469 5.46332 19.5615 5.63999V6.47999C19.5545 6.65593 19.5827 6.8315 19.6445 6.99637C19.7063 7.16124 19.8005 7.31207 19.9215 7.43999C20.0018 7.55548 20.1098 7.64896 20.2356 7.71186C20.3614 7.77476 20.501 7.80506 20.6415 7.79999C20.7994 7.80504 20.9564 7.77542 21.1015 7.71322C21.2466 7.65102 21.3764 7.55775 21.4815 7.43999C21.683 7.16322 21.769 6.81901 21.7215 6.47999V5.63999ZM17.7615 8.51999H16.8015V6.47999H14.7615V8.51999H13.8015V3.59999H14.7615V5.75999H16.8015V3.59999H17.7615V8.51999ZM25.5625 4.31999H27.0025V3.59999H23.1625V4.31999H24.6025V8.51999H25.5625V4.31999ZM30.4815 6.35999H28.5615V7.79999H30.8415V8.51999H27.6015V3.59999H30.7215V4.31999H28.5615V5.63999H30.4815V6.35999ZM34.8025 7.79999H32.5225V3.59999H31.5625V8.51999H34.8025V7.79999Z" fill="#FCDD09"/>
  <path d="M43.3197 15.5999V11.0399H4.67969V15.5999" stroke="#FCDD09" stroke-width="1.3" stroke-linecap="round" stroke-linejoin="round"/>
  <path d="M43.3197 19.5601H4.67969V46.7881H43.3197V19.5601Z" stroke="#FCDD09" stroke-width="1.3" stroke-linecap="round" stroke-linejoin="round"/>
  <path d="M43.3203 15.6H4.68031H1.32031V19.56H4.68031H43.3203H46.6803V15.6H43.3203Z" stroke="#FCDD09" stroke-width="1.3" stroke-linecap="round" stroke-linejoin="round"/>
  <path d="M19.0789 23.64H11.8789V30.924H19.0789V23.64Z" fill="#FCDD09"/>
  <path d="M36.1219 23.64H28.9219V30.924H36.1219V23.64Z" fill="#FCDD09"/>
  <path d="M19.0789 35.16H11.8789V42.444H19.0789V35.16Z" fill="#FCDD09"/>
  <path d="M36.1219 35.16H28.9219V42.444H36.1219V35.16Z" fill="#FCDD09"/>
</svg>