<svg width="24" height="24" viewBox="0 0 24 24" fill="none" xmlns="http://www.w3.org/2000/svg">
<circle cx="12" cy="12" r="12" fill="#0F75BC"/>
<g clip-path="url(#clip0_14727_68676)">
<path d="M15.7485 14.326C15.278 13.8615 14.6907 13.8615 14.2232 14.326C13.8667 14.6796 13.5101 15.0332 13.1595 15.3927C13.0636 15.4916 12.9827 15.5126 12.8658 15.4467C12.6351 15.3208 12.3894 15.219 12.1676 15.0811C11.1338 14.4309 10.2679 13.5948 9.50075 12.6539C9.12019 12.1865 8.78158 11.6861 8.54486 11.1227C8.49692 11.0089 8.50591 10.9339 8.5988 10.8411C8.95538 10.4965 9.30298 10.1429 9.65357 9.78929C10.142 9.29786 10.142 8.72253 9.65057 8.22811C9.3719 7.94644 9.09322 7.67076 8.81455 7.38909C8.52688 7.10142 8.24221 6.81076 7.95155 6.52609C7.4811 6.06763 6.89379 6.06763 6.42633 6.52909C6.06675 6.88268 5.72215 7.24525 5.35658 7.59285C5.01798 7.91347 4.84717 8.30602 4.81122 8.76448C4.75428 9.51061 4.93707 10.2148 5.19477 10.901C5.72215 12.3213 6.52522 13.5829 7.49908 14.7395C8.81455 16.3037 10.3847 17.5412 12.2216 18.4342C13.0486 18.8357 13.9056 19.1444 14.8375 19.1953C15.4788 19.2313 16.0361 19.0695 16.4826 18.569C16.7882 18.2274 17.1328 17.9158 17.4565 17.5892C17.9359 17.1038 17.9389 16.5164 17.4625 16.037C16.8931 15.4647 16.3208 14.8953 15.7485 14.326Z" fill="white"/>
<path d="M15.1759 11.9378L16.2817 11.749C16.1079 10.7332 15.6284 9.81327 14.9003 9.08212C14.1302 8.31202 13.1563 7.82658 12.0836 7.67676L11.9277 8.78846C12.7578 8.90532 13.5129 9.27989 14.1092 9.87619C14.6725 10.4395 15.0411 11.1527 15.1759 11.9378Z" fill="white"/>
<path d="M16.9046 7.13108C15.6281 5.85457 14.013 5.04851 12.23 4.7998L12.0742 5.91151C13.6144 6.12726 15.0108 6.82544 16.1135 7.92516C17.1593 8.97094 17.8455 10.2924 18.0942 11.7457L19.1999 11.5569C18.9092 9.87289 18.1152 8.34467 16.9046 7.13108Z" fill="white"/>
</g>
<defs>
<clipPath id="clip0_14727_68676">
<rect width="14.4" height="14.4" fill="white" transform="translate(4.80078 4.7998)"/>
</clipPath>
</defs>
</svg>
