<svg width="40" height="40" viewBox="0 0 40 40" fill="none" xmlns="http://www.w3.org/2000/svg">
<rect width="40" height="40" rx="20" fill="white"/>
<g clip-path="url(#clip0_14440_66938)">
<path d="M8 31.8784L9.68674 25.7471C8.64642 23.9528 8.09909 21.9171 8.09976 19.8318C8.10242 13.3077 13.4354 8 19.9889 8C23.1691 8.00154 26.154 9.23365 28.399 11.4702C30.6433 13.7067 31.8791 16.6795 31.878 19.8413C31.8751 26.3649 26.5412 31.6735 19.9889 31.6735C19.9884 31.6735 19.9894 31.6735 19.9889 31.6735H19.9838C17.9942 31.6727 16.0391 31.1759 14.3025 30.2331L8 31.8784Z" fill="white"/>
<path d="M19.991 9.99854C14.5402 9.99854 10.1075 14.41 10.1055 19.8323C10.1047 21.6904 10.627 23.5002 11.6161 25.0662L11.8512 25.4382L10.8527 29.0671L14.5928 28.0908L14.9539 28.3039C16.4708 29.2001 18.2098 29.674 19.9834 29.6749H19.9871C25.4337 29.6749 29.8664 25.263 29.8687 19.8403C29.8696 17.2125 28.8428 14.7414 26.9771 12.8826C25.1113 11.0238 22.6305 9.99964 19.991 9.99854Z" fill="url(#paint0_linear_14440_66938)"/>
<path fill-rule="evenodd" clip-rule="evenodd" d="M17.019 14.885C16.7963 14.3927 16.5621 14.3827 16.3505 14.3741C16.1773 14.3667 15.9791 14.3672 15.7811 14.3672C15.583 14.3672 15.2612 14.4412 14.9891 14.7372C14.7168 15.0331 13.9492 15.7485 13.9492 17.2036C13.9492 18.6587 15.0138 20.0646 15.1621 20.2621C15.3106 20.4594 17.2172 23.5408 20.2368 24.7261C22.7461 25.7113 23.2567 25.5153 23.8016 25.4661C24.3462 25.4169 25.5591 24.7507 25.8065 24.0602C26.0541 23.3697 26.0541 22.778 25.98 22.6543C25.9056 22.5308 25.7076 22.457 25.4104 22.3091C25.1133 22.1613 23.6528 21.4457 23.3805 21.3471C23.1082 21.2484 22.9102 21.1992 22.712 21.4951C22.5141 21.7911 21.9451 22.457 21.7717 22.6543C21.5984 22.8518 21.4252 22.8764 21.1279 22.7286C20.8309 22.5803 19.8741 22.2684 18.7391 21.2608C17.856 20.477 17.2599 19.5089 17.0864 19.2129C16.9132 18.917 17.068 18.7569 17.2169 18.6095C17.3503 18.4769 17.514 18.2641 17.6627 18.0914C17.8108 17.9188 17.8605 17.7955 17.9593 17.5984C18.0584 17.4009 18.009 17.2282 17.9346 17.0804C17.8604 16.9325 17.2831 15.4698 17.019 14.885Z" fill="white"/>
</g>
<defs>
<linearGradient id="paint0_linear_14440_66938" x1="19.7859" y1="11.1793" x2="19.8852" y2="27.9939" gradientUnits="userSpaceOnUse">
<stop stop-color="#57D163"/>
<stop offset="1" stop-color="#23B33A"/>
</linearGradient>
<clipPath id="clip0_14440_66938">
<rect width="24" height="24" fill="white" transform="translate(8 8)"/>
</clipPath>
</defs>
</svg>
