<svg width="40" height="40" viewBox="0 0 40 40" fill="none" xmlns="http://www.w3.org/2000/svg">
<rect width="40" height="40" rx="20" fill="white"/>
<g clip-path="url(#clip0_14440_66934)">
<path d="M20.0498 10C14.2786 10 10 12.3 10 15V15.7C10 16.4 10.597 16.9 11.2935 17H13.8806C14.7761 17 15.2736 15.9 14.9751 15C14.4776 14.3 14.9751 13.3 15.7711 13.1C18.5572 12.5 21.3433 12.5 24.2289 13.1C25.1244 13.3 25.5224 14.2 25.0249 15C24.7264 15.9 25.2239 16.9 26.1194 17H28.7065C29.403 17 30 16.4 30 15.7V15C29.9005 12.2 25.5224 10 20.0498 10Z" fill="#096AFC"/>
<path d="M25.2249 17.5C25.0259 17.2 24.7274 17 24.3294 17H22.9364V15.5C22.9364 15.2 22.7374 15 22.4389 15H21.4439C21.1453 15 20.9463 15.2 20.9463 15.5V17H18.9563V15.5C18.9563 15.2 18.7573 15 18.4588 15H17.4638C17.1652 15 16.9662 15.2 16.9662 15.5V17H15.5732C15.1752 17 14.8767 17.2 14.6777 17.5C13.1851 20.1 10.9961 23.4 10.9961 29C10.9961 29.5 11.3941 30 11.9911 30H27.9115C28.5085 30 28.9065 29.5 28.9065 29C28.9065 23.4 26.618 19.9 25.2249 17.5ZM19.9513 28C17.7623 28 15.9712 26.2 15.9712 24C15.9712 21.8 17.7623 20 19.9513 20C22.1404 20 23.9314 21.8 23.9314 24C23.9314 26.2 22.1404 28 19.9513 28Z" fill="#096AFC"/>
<path d="M19.951 26C21.0501 26 21.941 25.1046 21.941 24C21.941 22.8954 21.0501 22 19.951 22C18.8519 22 17.9609 22.8954 17.9609 24C17.9609 25.1046 18.8519 26 19.951 26Z" fill="#096AFC"/>
</g>
<defs>
<clipPath id="clip0_14440_66934">
<rect width="20" height="20" fill="white" transform="translate(10 10)"/>
</clipPath>
</defs>
</svg>
