<svg width="40" height="40" viewBox="0 0 40 40" fill="none" xmlns="http://www.w3.org/2000/svg">
<circle cx="20" cy="20" r="20" fill="#0F75BC"/>
<g clip-path="url(#clip0_14440_66917)">
<path d="M28.765 30.5887L19.154 25.5907C18.9036 25.4602 18.5981 25.4782 18.3614 25.6357L11.0123 30.6337C10.7374 30.8212 10.6183 31.1617 10.7191 31.4752C10.8168 31.7857 11.1131 32.0002 11.446 32.0002H28.4061C28.7558 32.0002 29.0628 31.7662 29.1468 31.4302C29.2323 31.0957 29.0735 30.7492 28.765 30.5887Z" fill="white"/>
<path d="M31.9831 29.1633L29.7228 19.1688C29.6678 18.9243 29.4922 18.7248 29.2555 18.6333C29.0172 18.5418 28.75 18.5733 28.5423 18.7143L21.1916 23.7123C20.9717 23.8623 20.848 24.1128 20.8648 24.3723C20.8801 24.6348 21.0343 24.8688 21.2695 24.9903L30.8789 29.9883C30.992 30.0468 31.1141 30.0768 31.2363 30.0768C31.3997 30.0768 31.5632 30.0258 31.6991 29.9223C31.9358 29.7453 32.0473 29.4498 31.9831 29.1633Z" fill="white"/>
<path d="M26.665 17.5265C26.5642 17.213 26.2694 17 25.935 17H18.9646C17.697 19.2545 15.8216 21.41 15.0503 22.253C14.6166 22.727 13.995 23 13.3459 23C12.6968 23 12.0752 22.727 11.6415 22.253C11.3437 21.9275 10.8825 21.407 10.354 20.762L8.50607 28.931C8.43887 29.2325 8.56564 29.543 8.82527 29.7155C8.95356 29.801 9.10323 29.843 9.25137 29.843C9.40409 29.843 9.55529 29.7995 9.68663 29.7095L26.3687 18.365C26.6451 18.1805 26.7627 17.84 26.665 17.5265Z" fill="white"/>
<path d="M13.3453 8C10.3978 8 8 10.355 8 13.25C8 15.944 12.2885 20.7155 12.7772 21.251C12.9223 21.4085 13.1285 21.5 13.3453 21.5C13.5622 21.5 13.7684 21.4085 13.9135 21.251C14.4022 20.7155 18.6907 15.944 18.6907 13.25C18.6907 10.355 16.2929 8 13.3453 8ZM13.3453 15.5C12.0808 15.5 11.0545 14.492 11.0545 13.25C11.0545 12.008 12.0808 11 13.3453 11C14.6099 11 15.6362 12.008 15.6362 13.25C15.6362 14.492 14.6099 15.5 13.3453 15.5Z" fill="white"/>
</g>
<defs>
<clipPath id="clip0_14440_66917">
<rect width="24" height="24" fill="white" transform="translate(8 8)"/>
</clipPath>
</defs>
</svg>
