<svg width="40" height="40" viewBox="0 0 40 40" fill="none" xmlns="http://www.w3.org/2000/svg">
<rect width="40" height="40" rx="20" fill="white"/>
<g clip-path="url(#clip0_14440_66942)">
<path d="M31.1541 21.893C31.8701 15.866 30.8101 12.061 28.8981 10.34L28.8991 10.339C25.8131 7.40002 15.3911 6.96502 11.6991 10.471C10.0411 12.186 9.4571 14.703 9.3931 17.819C9.3291 20.936 9.2531 26.775 14.6941 28.359H14.6991L14.6941 30.778C14.6941 30.778 14.6571 31.758 15.2831 31.955C15.9991 32.187 16.3231 31.732 18.5501 29.072C22.2741 29.395 25.1341 28.655 25.4591 28.547C26.2111 28.295 30.4661 27.732 31.1541 21.893ZM18.9171 27.37C18.9171 27.37 16.5601 30.309 15.8271 31.072C15.5871 31.32 15.3241 31.297 15.3281 30.805C15.3281 30.482 15.3461 26.789 15.3461 26.789C10.7331 25.467 11.0051 20.495 11.0551 17.894C11.1051 15.292 11.5811 13.161 12.9851 11.726C16.2241 8.68903 25.3611 9.36803 27.6891 11.556C30.5351 14.079 29.5221 21.207 29.5281 21.45C28.9431 26.324 25.4951 26.633 24.8611 26.844C24.5901 26.934 22.0751 27.581 18.9171 27.37Z" fill="#8E24AA"/>
<path d="M20.2223 12.2969C19.8373 12.2969 19.8373 12.8969 20.2223 12.9019C23.2093 12.9249 25.6693 15.0069 25.6963 18.8259C25.6963 19.2289 26.2863 19.2239 26.2813 18.8209H26.2803C26.2483 14.7059 23.5623 12.3199 20.2223 12.2969Z" fill="#8E24AA"/>
<path d="M24.149 18.193C24.14 18.591 24.729 18.61 24.734 18.207C24.783 15.938 23.384 14.069 20.755 13.872C20.37 13.844 20.33 14.449 20.714 14.477C22.994 14.65 24.195 16.206 24.149 18.193Z" fill="#8E24AA"/>
<path d="M23.5183 20.7741C23.0243 20.4881 22.5213 20.6661 22.3133 20.9471L21.8783 21.5101C21.6573 21.7961 21.2443 21.7581 21.2443 21.7581C18.2303 20.9611 17.4243 17.8071 17.4243 17.8071C17.4243 17.8071 17.3873 17.3801 17.6633 17.1511L18.2073 16.7011C18.4793 16.4851 18.6513 15.9651 18.3743 15.4541C17.6343 14.1171 17.1373 13.6561 16.8843 13.3021C16.6183 12.9691 16.2183 12.8941 15.8023 13.1191H15.7933C14.9283 13.6251 13.9813 14.5721 14.2843 15.5471C14.8013 16.5751 15.7513 19.8521 18.7793 22.3281C20.2023 23.4991 22.4543 24.6991 23.4103 24.9761L23.4193 24.9901C24.3613 25.3041 25.2773 24.3201 25.7663 23.4291V23.4221C25.9833 22.9911 25.9113 22.5831 25.5943 22.3161C25.0323 21.7681 24.1843 21.1631 23.5183 20.7741Z" fill="#8E24AA"/>
<path d="M21.1693 16.1042C22.1303 16.1602 22.5964 16.6622 22.6464 17.6932C22.6644 18.0962 23.2494 18.0682 23.2314 17.6652C23.1674 16.3192 22.4654 15.5692 21.2013 15.4992C20.8163 15.4762 20.7803 16.0812 21.1693 16.1042Z" fill="#8E24AA"/>
</g>
<defs>
<clipPath id="clip0_14440_66942">
<rect width="24" height="24" fill="white" transform="translate(8 8)"/>
</clipPath>
</defs>
</svg>
