<svg xmlns="http://www.w3.org/2000/svg" width="64" height="64" viewBox="0 0 64 64" fill="none">
  <path d="M56.7549 22.0688L40.8862 19.7625L33.7924 5.38126C33.5987 4.98751 33.2799 4.66876 32.8862 4.47501C31.8987 3.98751 30.6987 4.39376 30.2049 5.38126L23.1112 19.7625L7.2424 22.0688C6.8049 22.1313 6.4049 22.3375 6.09865 22.65C5.72841 23.0306 5.52439 23.5425 5.53143 24.0734C5.53846 24.6043 5.75596 25.1107 6.13615 25.4813L17.6174 36.675L14.9049 52.4813C14.8413 52.8489 14.882 53.2271 15.0224 53.5728C15.1627 53.9186 15.3972 54.2181 15.6991 54.4374C16.001 54.6566 16.3583 54.7869 16.7305 54.8135C17.1027 54.84 17.4749 54.7617 17.8049 54.5875L31.9987 47.125L46.1924 54.5875C46.5799 54.7938 47.0299 54.8625 47.4612 54.7875C48.5487 54.6 49.2799 53.5688 49.0924 52.4813L46.3799 36.675L57.8612 25.4813C58.1737 25.175 58.3799 24.775 58.4424 24.3375C58.6112 23.2438 57.8487 22.2313 56.7549 22.0688Z" fill="#FCDD09"/>
</svg>