<svg xmlns="http://www.w3.org/2000/svg" width="47" height="47" viewBox="0 0 47 47" fill="none">
  <path d="M23.5 2.9375C28.9535 2.9375 34.1837 5.1039 38.0399 8.96012C41.8961 12.8163 44.0625 18.0465 44.0625 23.5C44.0625 28.9535 41.8961 34.1837 38.0399 38.0399C34.1837 41.8961 28.9535 44.0625 23.5 44.0625C18.0465 44.0625 12.8163 41.8961 8.96012 38.0399C5.1039 34.1837 2.9375 28.9535 2.9375 23.5C2.9375 18.0465 5.1039 12.8163 8.96012 8.96012C12.8163 5.1039 18.0465 2.9375 23.5 2.9375ZM20.9385 27.5567L16.3707 22.9859C16.2069 22.8222 16.0125 22.6923 15.7986 22.6037C15.5846 22.515 15.3553 22.4694 15.1237 22.4694C14.8921 22.4694 14.6628 22.515 14.4489 22.6037C14.2349 22.6923 14.0405 22.8222 13.8767 22.9859C13.546 23.3167 13.3602 23.7652 13.3602 24.2329C13.3602 24.7006 13.546 25.1492 13.8767 25.4799L19.693 31.2961C19.8563 31.4607 20.0505 31.5913 20.2646 31.6805C20.4786 31.7696 20.7081 31.8155 20.94 31.8155C21.1718 31.8155 21.4014 31.7696 21.6154 31.6805C21.8294 31.5913 22.0236 31.4607 22.1869 31.2961L34.2307 19.2494C34.3966 19.0864 34.5286 18.892 34.6191 18.6777C34.7096 18.4633 34.7567 18.2332 34.7578 18.0005C34.7589 17.7679 34.7139 17.5373 34.6254 17.3221C34.5369 17.107 34.4067 16.9114 34.2423 16.7468C34.0779 16.5822 33.8825 16.4518 33.6674 16.363C33.4524 16.2743 33.2219 16.2291 32.9892 16.2299C32.7565 16.2307 32.5263 16.2775 32.3119 16.3678C32.0974 16.458 31.903 16.5898 31.7397 16.7555L20.9385 27.5567Z" fill="#FCDD09"/>
</svg>